<?xml version="1.0" encoding="UTF-8" standalone="no"?>
<!-- Created with Inkscape (http://www.inkscape.org/) -->

<svg
   width="210mm"
   height="297mm"
   viewBox="0 0 210 297"
   version="1.1"
   id="svg5"
   sodipodi:docname="box.svg"
   inkscape:version="1.1.1 (3bf5ae0d25, 2021-09-20)"
   xmlns:inkscape="http://www.inkscape.org/namespaces/inkscape"
   xmlns:sodipodi="http://sodipodi.sourceforge.net/DTD/sodipodi-0.dtd"
   xmlns="http://www.w3.org/2000/svg"
   xmlns:svg="http://www.w3.org/2000/svg">
  <sodipodi:namedview
     id="namedview7"
     pagecolor="#505050"
     bordercolor="#eeeeee"
     borderopacity="1"
     inkscape:pageshadow="0"
     inkscape:pageopacity="0"
     inkscape:pagecheckerboard="0"
     inkscape:document-units="mm"
     showgrid="false"
     inkscape:zoom="0.69664703"
     inkscape:cx="1032.0865"
     inkscape:cy="492.35838"
     inkscape:window-width="1920"
     inkscape:window-height="986"
     inkscape:window-x="-11"
     inkscape:window-y="-11"
     inkscape:window-maximized="1"
     inkscape:current-layer="layer1" />
  <defs
     id="defs2" />
  <g
     inkscape:label="Layer 1"
     inkscape:groupmode="layer"
     id="layer1">
    <g
       id="panel6910">
      <path
         style="fill:none;stroke:#000000;stroke-width:1"
         d="M 70.4 141.9 L 81.2143 141.9 L 81.2143 138.8 L 91.4143 138.8 L 91.4143 141.9 L 102.129 141.9 L 102.129 138.8 L 112.329 138.8 L 112.329 141.9 L 123.043 141.9 L 123.043 138.8 L 133.243 138.8 L 133.243 141.9 L 143.957 141.9 L 143.957 138.8 L 154.157 138.8 L 154.157 141.9 L 164.871 141.9 L 164.871 138.8 L 175.071 138.8 L 175.071 141.9 L 185.786 141.9 L 185.786 138.8 L 195.986 138.8 L 195.986 141.9 L 206.8 141.9"
         id="path830" />
      <path
         style="fill:none;stroke:#000000;stroke-width:1"
         d="M 206.8 141.9 L 206.8 154.367 L 203.7 154.367 L 203.7 164.167 L 206.8 164.167 L 206.8 179.833 L 203.7 179.833 L 203.7 189.633 L 206.8 189.633 L 206.8 202.1"
         id="path832" />
      <path
         style="fill:none;stroke:#000000;stroke-width:1"
         d="M 206.8 202.1 L 195.986 202.1 L 195.986 205.2 L 185.786 205.2 L 185.786 202.1 L 175.071 202.1 L 175.071 205.2 L 164.871 205.2 L 164.871 202.1 L 154.157 202.1 L 154.157 205.2 L 143.957 205.2 L 143.957 202.1 L 133.243 202.1 L 133.243 205.2 L 123.043 205.2 L 123.043 202.1 L 112.329 202.1 L 112.329 205.2 L 102.129 205.2 L 102.129 202.1 L 91.4143 202.1 L 91.4143 205.2 L 81.2143 205.2 L 81.2143 202.1 L 70.4 202.1"
         id="path834" />
      <path
         style="fill:none;stroke:#000000;stroke-width:1"
         d="M 70.4 202.1 L 70.4 189.633 L 73.5 189.633 L 73.5 179.833 L 70.4 179.833 L 70.4 164.167 L 73.5 164.167 L 73.5 154.367 L 70.4 154.367 L 70.4 141.9"
         id="path836" />
    </g>
    <g
       id="panel6703">
      <path
         style="fill:none;stroke:#000000;stroke-width:1"
         d="M 5.1 73.5 L 17.3667 73.5 L 17.3667 70.4 L 27.5667 70.4 L 27.5667 73.5 L 42.8333 73.5 L 42.8333 70.4 L 53.0333 70.4 L 53.0333 73.5 L 65.3 73.5"
         id="path839" />
      <path
         style="fill:none;stroke:#000000;stroke-width:1"
         d="M 65.3 73.5 L 65.3 85.7667 L 68.4 85.7667 L 68.4 95.9667 L 65.3 95.9667 L 65.3 111.233 L 68.4 111.233 L 68.4 121.433 L 65.3 121.433 L 65.3 133.7"
         id="path841" />
      <path
         style="fill:none;stroke:#000000;stroke-width:1"
         d="M 65.3 133.7 L 53.0333 133.7 L 53.0333 136.8 L 42.8333 136.8 L 42.8333 133.7 L 27.5667 133.7 L 27.5667 136.8 L 17.3667 136.8 L 17.3667 133.7 L 5.1 133.7"
         id="path843" />
      <path
         style="fill:none;stroke:#000000;stroke-width:1"
         d="M 5.1 133.7 L 5.1 121.433 L 2 121.433 L 2 111.233 L 5.1 111.233 L 5.1 95.9667 L 2 95.9667 L 2 85.7667 L 5.1 85.7667 L 5.1 73.5"
         id="path845" />
    </g>
    <g
       id="panel5084">
      <path
         style="fill:none;stroke:#000000;stroke-width:1"
         d="M 70.4 70.4 L 81.4143 70.4 L 81.4143 73.5 L 91.2143 73.5 L 91.2143 70.4 L 102.329 70.4 L 102.329 73.5 L 112.129 73.5 L 112.129 70.4 L 123.243 70.4 L 123.243 73.5 L 133.043 73.5 L 133.043 70.4 L 144.157 70.4 L 144.157 73.5 L 153.957 73.5 L 153.957 70.4 L 165.071 70.4 L 165.071 73.5 L 174.871 73.5 L 174.871 70.4 L 185.986 70.4 L 185.986 73.5 L 195.786 73.5 L 195.786 70.4 L 206.8 70.4"
         id="path848" />
      <path
         style="fill:none;stroke:#000000;stroke-width:1"
         d="M 206.8 70.4 L 206.8 85.9667 L 203.7 85.9667 L 203.7 95.7667 L 206.8 95.7667 L 206.8 111.433 L 203.7 111.433 L 203.7 121.233 L 206.8 121.233 L 206.8 136.8"
         id="path850" />
      <path
         style="fill:none;stroke:#000000;stroke-width:1"
         d="M 206.8 136.8 L 195.786 136.8 L 195.786 133.7 L 185.986 133.7 L 185.986 136.8 L 174.871 136.8 L 174.871 133.7 L 165.071 133.7 L 165.071 136.8 L 153.957 136.8 L 153.957 133.7 L 144.157 133.7 L 144.157 136.8 L 133.043 136.8 L 133.043 133.7 L 123.243 133.7 L 123.243 136.8 L 112.129 136.8 L 112.129 133.7 L 102.329 133.7 L 102.329 136.8 L 91.2143 136.8 L 91.2143 133.7 L 81.4143 133.7 L 81.4143 136.8 L 70.4 136.8"
         id="path852" />
      <path
         style="fill:none;stroke:#000000;stroke-width:1"
         d="M 70.4 136.8 L 70.4 121.233 L 73.5 121.233 L 73.5 111.433 L 70.4 111.433 L 70.4 95.7667 L 73.5 95.7667 L 73.5 85.9667 L 70.4 85.9667 L 70.4 70.4"
         id="path854" />
    </g>
    <g
       id="panel2152">
      <path
         style="fill:none;stroke:#000000;stroke-width:1"
         d="M 211.9 73.5 L 224.167 73.5 L 224.167 70.4 L 234.367 70.4 L 234.367 73.5 L 249.633 73.5 L 249.633 70.4 L 259.833 70.4 L 259.833 73.5 L 272.1 73.5"
         id="path857" />
      <path
         style="fill:none;stroke:#000000;stroke-width:1"
         d="M 272.1 73.5 L 272.1 85.7667 L 275.2 85.7667 L 275.2 95.9667 L 272.1 95.9667 L 272.1 111.233 L 275.2 111.233 L 275.2 121.433 L 272.1 121.433 L 272.1 133.7"
         id="path859" />
      <path
         style="fill:none;stroke:#000000;stroke-width:1"
         d="M 272.1 133.7 L 259.833 133.7 L 259.833 136.8 L 249.633 136.8 L 249.633 133.7 L 234.367 133.7 L 234.367 136.8 L 224.167 136.8 L 224.167 133.7 L 211.9 133.7"
         id="path861" />
      <path
         style="fill:none;stroke:#000000;stroke-width:1"
         d="M 211.9 133.7 L 211.9 121.433 L 208.8 121.433 L 208.8 111.233 L 211.9 111.233 L 211.9 95.9667 L 208.8 95.9667 L 208.8 85.7667 L 211.9 85.7667 L 211.9 73.5"
         id="path863" />
    </g>
    <g
       id="panel3321">
      <path
         style="fill:none;stroke:#000000;stroke-width:1"
         d="M 277.2 70.4 L 288.214 70.4 L 288.214 73.5 L 298.014 73.5 L 298.014 70.4 L 309.129 70.4 L 309.129 73.5 L 318.929 73.5 L 318.929 70.4 L 330.043 70.4 L 330.043 73.5 L 339.843 73.5 L 339.843 70.4 L 350.957 70.4 L 350.957 73.5 L 360.757 73.5 L 360.757 70.4 L 371.871 70.4 L 371.871 73.5 L 381.671 73.5 L 381.671 70.4 L 392.786 70.4 L 392.786 73.5 L 402.586 73.5 L 402.586 70.4 L 413.6 70.4"
         id="path866" />
      <path
         style="fill:none;stroke:#000000;stroke-width:1"
         d="m 413.6,70.4 v 15.5667 h -3.1 v 9.8 c 4.43333,0 14.74708,0.691813 13.3,0 7.98947,1.323281 5.43159,15.52377 0,15.6663 h -13.3 v 9.8 h 3.1 V 136.8"
         id="path868"
         sodipodi:nodetypes="cccccccccc" />
      <path
         style="fill:none;stroke:#000000;stroke-width:1"
         d="M 413.6 136.8 L 402.586 136.8 L 402.586 133.7 L 392.786 133.7 L 392.786 136.8 L 381.671 136.8 L 381.671 133.7 L 371.871 133.7 L 371.871 136.8 L 360.757 136.8 L 360.757 133.7 L 350.957 133.7 L 350.957 136.8 L 339.843 136.8 L 339.843 133.7 L 330.043 133.7 L 330.043 136.8 L 318.929 136.8 L 318.929 133.7 L 309.129 133.7 L 309.129 136.8 L 298.014 136.8 L 298.014 133.7 L 288.214 133.7 L 288.214 136.8 L 277.2 136.8"
         id="path870" />
      <path
         style="fill:none;stroke:#000000;stroke-width:1"
         d="M 277.2 136.8 L 277.2 121.233 L 280.3 121.233 L 280.3 111.433 L 277.2 111.433 L 277.2 95.7667 L 280.3 95.7667 L 280.3 85.9667 L 277.2 85.9667 L 277.2 70.4"
         id="path872" />
    </g>
    <g
       id="panel5445">
      <path
         style="fill:none;stroke:#000000;stroke-width:1"
         d="M 70.4 5.1 L 81.2143 5.1 L 81.2143 2 L 91.4143 2 L 91.4143 5.1 L 102.129 5.1 L 102.129 2 L 112.329 2 L 112.329 5.1 L 123.043 5.1 L 123.043 2 L 133.243 2 L 133.243 5.1 L 143.957 5.1 L 143.957 2 L 154.157 2 L 154.157 5.1 L 164.871 5.1 L 164.871 2 L 175.071 2 L 175.071 5.1 L 185.786 5.1 L 185.786 2 L 195.986 2 L 195.986 5.1 L 206.8 5.1"
         id="path875" />
      <path
         style="fill:none;stroke:#000000;stroke-width:1"
         d="M 206.8 5.1 L 206.8 17.5667 L 203.7 17.5667 L 203.7 27.3667 L 206.8 27.3667 L 206.8 43.0333 L 203.7 43.0333 L 203.7 52.8333 L 206.8 52.8333 L 206.8 65.3"
         id="path877" />
      <path
         style="fill:none;stroke:#000000;stroke-width:1"
         d="M 206.8 65.3 L 195.986 65.3 L 195.986 68.4 L 185.786 68.4 L 185.786 65.3 L 175.071 65.3 L 175.071 68.4 L 164.871 68.4 L 164.871 65.3 L 154.157 65.3 L 154.157 68.4 L 143.957 68.4 L 143.957 65.3 L 133.243 65.3 L 133.243 68.4 L 123.043 68.4 L 123.043 65.3 L 112.329 65.3 L 112.329 68.4 L 102.129 68.4 L 102.129 65.3 L 91.4143 65.3 L 91.4143 68.4 L 81.2143 68.4 L 81.2143 65.3 L 70.4 65.3"
         id="path879" />
      <path
         style="fill:none;stroke:#000000;stroke-width:1"
         d="M 70.4 65.3 L 70.4 52.8333 L 73.5 52.8333 L 73.5 43.0333 L 70.4 43.0333 L 70.4 27.3667 L 73.5 27.3667 L 73.5 17.5667 L 70.4 17.5667 L 70.4 5.1"
         id="path881" />
    </g>
    <circle
       style="fill:none;fill-rule:evenodd;stroke:#000000;stroke-width:0.265;stroke-miterlimit:4;stroke-dasharray:none;stroke-opacity:1"
       id="path956"
       cx="294.95633"
       cy="92.525436"
       r="3.8675001" />
    <circle
       style="fill:none;fill-rule:evenodd;stroke:#000000;stroke-width:0.265;stroke-miterlimit:4;stroke-dasharray:none;stroke-opacity:1"
       id="path956-3"
       cx="343.19034"
       cy="92.525436"
       r="3.8675001" />
    <circle
       style="fill:none;fill-rule:evenodd;stroke:#000000;stroke-width:0.265;stroke-miterlimit:4;stroke-dasharray:none;stroke-opacity:1"
       id="path956-7"
       cx="319.07333"
       cy="92.525436"
       r="3.8675001" />
    <circle
       style="fill:none;fill-rule:evenodd;stroke:#000000;stroke-width:0.265;stroke-miterlimit:4;stroke-dasharray:none;stroke-opacity:1"
       id="path956-8"
       cx="367.30734"
       cy="92.525436"
       r="3.8675001" />
    <circle
       style="fill:none;fill-rule:evenodd;stroke:#000000;stroke-width:0.265;stroke-miterlimit:4;stroke-dasharray:none;stroke-opacity:1"
       id="path956-77"
       cx="294.91193"
       cy="116.50305"
       r="1.8674999" />
    <circle
       style="fill:none;fill-rule:evenodd;stroke:#000000;stroke-width:0.265;stroke-miterlimit:4;stroke-dasharray:none;stroke-opacity:1"
       id="path956-3-0"
       cx="343.14594"
       cy="116.50305"
       r="1.8674999" />
    <circle
       style="fill:none;fill-rule:evenodd;stroke:#000000;stroke-width:0.265;stroke-miterlimit:4;stroke-dasharray:none;stroke-opacity:1"
       id="path956-7-1"
       cx="319.02893"
       cy="116.50305"
       r="1.8674999" />
    <circle
       style="fill:none;fill-rule:evenodd;stroke:#000000;stroke-width:0.265;stroke-miterlimit:4;stroke-dasharray:none;stroke-opacity:1"
       id="path956-8-4"
       cx="367.26294"
       cy="116.50305"
       r="1.8674999" />
    <path
       style="fill:#0000ff;stroke-width:1"
       d="M 89.83464,103.51855 V 77.2 h 48.07568 48.07568 v 26.31855 26.31854 H 137.91032 89.83464 Z m 60.52066,8.34496 c 0.11652,-0.12833 0.11255,-0.181 -0.0488,-0.64729 -0.0591,-0.17091 -0.0958,-0.54711 -0.0815,-0.83601 l 0.0261,-0.52526 0.17756,0.15666 c 0.0977,0.0862 0.28245,0.17823 0.41065,0.20459 0.19867,0.0408 0.24707,0.0175 0.32784,-0.15791 0.0521,-0.1132 0.17325,-0.28618 0.26918,-0.38439 0.15693,-0.16066 0.19851,-0.16957 0.41455,-0.0889 0.19153,0.0716 0.26757,0.071 0.37571,-0.003 0.0746,-0.0508 0.22991,-0.0821 0.34519,-0.0697 0.1686,0.0181 0.20907,-0.0105 0.20683,-0.1465 -0.005,-0.27381 -0.37093,-0.44138 -0.83922,-0.3838 -0.21737,0.0267 -0.44136,0.0942 -0.49774,0.14989 -0.0564,0.0557 -0.17646,0.1013 -0.26683,0.1013 -0.20045,0 -0.96811,0.29834 -0.96811,0.37624 0,0.0308 -0.0563,0.0383 -0.12516,0.0166 -0.0688,-0.0217 -0.23864,0.0101 -0.37733,0.0706 -0.37944,0.16552 -1.00682,0.66805 -1.00682,0.80647 0,0.067 0.0383,0.10253 0.085,0.0788 0.0468,-0.0237 0.14583,0.0534 0.22018,0.17129 0.0744,0.1179 0.23909,0.28139 0.36609,0.3633 0.17027,0.10983 0.21544,0.18892 0.172,0.30114 -0.0325,0.0839 -0.0109,0.1996 0.0481,0.25791 0.0861,0.085 0.0788,0.10571 -0.0371,0.10571 -0.14661,0 -0.19601,0.15153 -0.0803,0.2464 0.10499,0.0861 0.76846,-0.0375 0.88393,-0.16466 z m 0.7836,0.0578 c 0.29298,-0.0429 0.61641,-0.0884 0.71873,-0.10114 0.10232,-0.0127 0.26213,-0.0557 0.35513,-0.0955 0.093,-0.0398 0.31734,-0.1319 0.49852,-0.20466 0.45788,-0.18386 0.37012,-0.19924 -0.17239,-0.0302 -0.24962,0.0778 -0.81656,0.19583 -1.25986,0.26233 -0.4433,0.0665 -0.806,0.14952 -0.806,0.18448 0,0.0798 0.0195,0.0794 0.66587,-0.0153 z m -2.03834,-0.13472 c -0.0322,-0.0427 -0.10101,-0.0776 -0.15294,-0.0776 -0.0589,0 -0.0521,0.0418 0.0179,0.11097 0.12177,0.12032 0.2306,0.0935 0.13505,-0.0333 z m -0.49196,-0.13294 c 0,-0.0304 -0.0763,-0.0944 -0.16967,-0.14218 -0.13825,-0.0708 -0.17953,-0.0658 -0.22296,0.027 -0.0373,0.0797 -0.0138,0.10147 0.078,0.0726 0.0722,-0.0227 0.15495,-0.01 0.18382,0.0283 0.0629,0.0835 0.13077,0.0909 0.13077,0.0143 z m -1.64247,-0.45433 c 0.0302,-0.04 0.0126,-0.0728 -0.0392,-0.0728 -0.0517,0 -0.094,0.0328 -0.094,0.0728 0,0.04 0.0176,0.0728 0.0392,0.0728 0.0215,0 0.0638,-0.0328 0.094,-0.0728 z m 1.49013,-0.16381 c 0.0674,-0.35143 -0.0667,-0.42209 -0.67225,-0.35423 -0.7625,0.0855 -0.79327,0.17509 -0.13579,0.39562 0.30847,0.10347 0.60627,0.18972 0.66176,0.19167 0.0555,0.002 0.12132,-0.10292 0.14628,-0.23306 z m 5.23867,0.091 c -0.031,-0.0972 -0.003,-0.14561 0.085,-0.14561 0.20854,0 0.13608,-0.29647 -0.10446,-0.42737 -0.21029,-0.11444 -0.21432,-0.11301 -0.16013,0.0569 0.0313,0.0982 -8e-5,0.26267 -0.072,0.37661 -0.12022,0.19064 -0.11611,0.2041 0.0713,0.23374 0.10939,0.0173 0.20515,0.0359 0.21279,0.0414 0.008,0.005 -0.007,-0.0556 -0.0326,-0.13569 z m -6.68441,-0.17772 c 0,-0.0177 -0.04,-0.0524 -0.0888,-0.0771 -0.0488,-0.0247 -0.0888,-0.0103 -0.0888,0.0321 0,0.0424 0.04,0.0771 0.0888,0.0771 0.0488,0 0.0888,-0.0144 0.0888,-0.0321 z m -0.93222,-0.40471 c -0.14034,-0.12013 -0.29764,-0.21583 -0.34954,-0.21267 -0.0541,0.003 -0.0492,0.0208 0.0116,0.0411 0.0583,0.0194 0.0948,0.0742 0.0811,0.12166 -0.0137,0.0475 -0.009,0.0638 0.0105,0.0362 0.0195,-0.0275 0.11279,0.0134 0.2074,0.091 0.28102,0.23044 0.31632,0.16014 0.0388,-0.0773 z m -0.4883,0.0728 c 0,-0.04 -0.0176,-0.0728 -0.0392,-0.0728 -0.0215,0 -0.0638,0.0328 -0.094,0.0728 -0.0302,0.04 -0.0126,0.0728 0.0392,0.0728 0.0517,0 0.094,-0.0328 0.094,-0.0728 z m -25.7617,-0.30084 c 0.0163,-0.0348 0.0862,-0.0632 0.15537,-0.0632 0.21629,0 0.13713,-0.19966 -0.0935,-0.23581 -0.12638,-0.0198 -0.19707,-0.005 -0.16685,0.0352 0.0288,0.0382 -0.0297,0.0335 -0.13003,-0.0105 -0.28623,-0.12561 -0.49014,-0.10258 -0.41899,0.0473 0.0333,0.0701 0.0675,0.16017 0.0761,0.20021 0.0385,0.17932 0.49651,0.20054 0.5779,0.0268 z m -0.84092,-0.17239 c 0.0378,-0.0808 -0.0116,-0.1086 -0.19026,-0.10689 -0.23141,0.002 -0.23425,0.007 -0.069,0.10921 0.21038,0.13049 0.19709,0.13061 0.25929,-0.002 z m 6.85218,-0.47806 c 0.0956,-0.12679 -0.0133,-0.15364 -0.13504,-0.0333 -0.07,0.0692 -0.0768,0.11096 -0.0179,0.11096 0.0519,0 0.12075,-0.0349 0.15293,-0.0776 z m -8.3048,-1.31422 c 0,-0.04 -0.04,-0.0526 -0.0888,-0.0278 -0.0488,0.0248 -0.0888,0.0778 -0.0888,0.1178 0,0.04 0.0399,0.0526 0.0888,0.0278 0.0488,-0.0247 0.0888,-0.0778 0.0888,-0.1178 z m 2.30875,-0.48283 c 0.10753,-0.15016 0.24759,-0.29751 0.31125,-0.32745 0.0648,-0.0305 0.0948,-0.1201 0.0682,-0.20354 -0.0303,-0.095 0.013,-0.18668 0.11923,-0.25267 0.0917,-0.0569 0.13397,-0.1046 0.0939,-0.10587 -0.0401,-0.001 -0.0105,-0.0536 0.0659,-0.11616 0.0764,-0.0626 0.17453,-0.0958 0.21815,-0.0737 0.0436,0.0221 0.0981,-0.0404 0.12106,-0.1389 0.0319,-0.13682 0.008,-0.17275 -0.10082,-0.15219 -0.35137,0.0663 -0.5421,0.13677 -0.5421,0.20017 0,0.0377 -0.0399,0.0484 -0.0888,0.0236 -0.0504,-0.0255 -0.0888,0.0357 -0.0888,0.14131 0,0.10247 -0.0442,0.18631 -0.0983,0.18631 -0.0541,0 -0.0761,-0.0475 -0.0489,-0.1055 0.0317,-0.0678 0.007,-0.0921 -0.0701,-0.0679 -0.19466,0.0613 -0.41239,1.11986 -0.23034,1.11986 0.0566,0 0.0783,0.0328 0.0481,0.0728 -0.0302,0.04 -0.0365,0.0728 -0.014,0.0728 0.0225,0 0.12885,-0.12285 0.23638,-0.27301 z m 26.27918,-0.23661 c 0,-0.0401 -0.04,-0.0728 -0.0888,-0.0728 -0.0488,0 -0.0888,0.0328 -0.0888,0.0728 0,0.04 0.04,0.0728 0.0888,0.0728 0.0488,0 0.0888,-0.0328 0.0888,-0.0728 z m 1.49528,-0.92391 c -0.0645,-0.0637 -0.0659,-0.0953 -0.004,-0.0953 0.0507,0 0.10793,0.0386 0.12708,0.0857 0.0652,0.16039 0.25568,-0.0195 0.19357,-0.18283 -0.10435,-0.27437 -0.34813,-0.34716 -0.43252,-0.12914 -0.0293,0.0758 -0.13547,0.15537 -0.23589,0.1769 -0.143,0.0307 -0.16956,0.0758 -0.12252,0.20807 0.033,0.0929 0.14533,0.22918 0.24954,0.30283 0.18656,0.13185 0.19049,0.1308 0.25547,-0.0685 0.0392,-0.12012 0.0268,-0.24112 -0.0305,-0.29771 z m 1.95439,0.22576 c 0.0334,0.0169 0.0328,-0.22038 -0.001,-0.52737 -0.0341,-0.307 -0.0649,-0.63382 -0.0684,-0.72628 -0.003,-0.0925 -0.0421,-0.14996 -0.0859,-0.12779 -0.0437,0.0222 -0.19357,-0.009 -0.33293,-0.0692 -0.24049,-0.10389 -0.26263,-0.10014 -0.43478,0.0737 -0.14166,0.14304 -0.20486,0.16391 -0.28855,0.0953 -0.0837,-0.0686 -0.10715,-0.0627 -0.10715,0.027 0,0.0632 0.0584,0.15459 0.12974,0.20315 0.0713,0.0486 0.1562,0.15666 0.18854,0.24022 0.0323,0.0836 0.20368,0.28005 0.38076,0.43665 0.17708,0.15659 0.35893,0.33832 0.4041,0.40385 0.0568,0.0824 0.0934,0.0915 0.11857,0.0296 0.02,-0.0493 0.0638,-0.0757 0.0972,-0.0588 z m -25.45309,-0.23936 c -0.0652,-0.0339 -0.11515,-0.0825 -0.11098,-0.10809 0.004,-0.0255 -0.0124,-0.0465 -0.0368,-0.0465 -0.0244,0 -0.0892,0 -0.14404,0 -0.0688,0 -0.0655,0.0338 0.0109,0.10921 0.0608,0.0601 0.17555,0.1087 0.25502,0.10809 0.11316,-8.8e-4 0.11878,-0.0145 0.0259,-0.0627 z m 22.96257,-0.43515 c -0.12905,-0.0404 -0.16997,0.0292 -0.10228,0.17385 0.0589,0.1259 0.0651,0.12552 0.12336,-0.008 0.0337,-0.0772 0.0242,-0.15189 -0.0211,-0.16607 z m -42.83872,-0.0834 c -0.0255,-0.0801 -0.0618,-0.14561 -0.0805,-0.14561 -0.0187,0 -0.034,0.0655 -0.034,0.14561 0,0.0801 0.0362,0.14561 0.0805,0.14561 0.0443,0 0.0596,-0.0655 0.034,-0.14561 z m 18.86273,-1.56395 c 0,-0.10702 -0.0508,-0.18334 -0.12207,-0.18334 -0.0671,0 -0.12208,-0.0328 -0.12208,-0.0728 0,-0.04 0.0433,-0.0728 0.0962,-0.0728 0.0529,0 0.0795,-0.041 0.0592,-0.091 -0.0204,-0.05 -0.0736,-0.0915 -0.11838,-0.0921 -0.0448,-5.8e-4 -0.12575,-0.0243 -0.17997,-0.0526 -0.14667,-0.0766 -0.21215,0.0124 -0.21215,0.28858 0,0.1442 0.0365,0.22846 0.0878,0.20249 0.0503,-0.0255 0.0652,0.004 0.0349,0.0685 -0.0375,0.0801 0.002,0.11299 0.13419,0.11299 0.10289,0 0.18706,0.0347 0.18706,0.0771 0,0.0424 0.035,0.0594 0.0777,0.0377 0.0427,-0.0217 0.0777,-0.12187 0.0777,-0.22271 z m 5.39291,-1.12895 c 0.0311,-0.0413 -0.005,-0.0535 -0.0836,-0.0286 -0.1538,0.0484 -0.18195,0.10058 -0.0542,0.10058 0.046,0 0.10795,-0.0324 0.13779,-0.072 z m 6.80876,-0.59904 c -0.0637,-0.0522 -0.10506,-0.0565 -0.10506,-0.0109 0,0.0972 0.10499,0.18328 0.16424,0.13469 0.0252,-0.0207 -0.001,-0.0764 -0.0592,-0.12377 z m 3.07396,-0.60498 c -0.0273,-0.0224 -0.077,0.018 -0.11032,0.0898 -0.0482,0.10376 -0.038,0.11212 0.0497,0.0407 0.0607,-0.0494 0.0879,-0.10813 0.0606,-0.13054 z m 0.33919,-0.84047 c 0.0506,-0.2593 0.068,-0.27522 0.17497,-0.15963 0.10922,0.11802 0.11904,0.11348 0.12164,-0.0562 0.002,-0.13686 -0.0431,-0.18461 -0.1748,-0.18461 -0.18592,0 -0.21416,0.0461 -0.30859,0.50379 -0.0391,0.18955 -0.0273,0.26474 0.0364,0.23244 0.0518,-0.0263 0.11949,-0.17736 0.15038,-0.33576 z m -3.0743,0.078 c 0,-0.04 -0.0399,-0.0728 -0.0888,-0.0728 -0.0488,0 -0.0888,0.0328 -0.0888,0.0728 0,0.04 0.04,0.0728 0.0888,0.0728 0.0488,0 0.0888,-0.0328 0.0888,-0.0728 z m -0.23571,-0.25795 c -0.0289,-0.0618 -0.0716,-0.0967 -0.0949,-0.0776 -0.0233,0.0191 -0.016,0.0696 0.0162,0.11235 0.0875,0.11615 0.13871,0.0936 0.0787,-0.0347 z m 0.85871,-0.45125 c 0.0452,-0.0898 0.0591,-0.2126 0.0309,-0.27301 -0.0349,-0.0746 0.004,-0.10984 0.12066,-0.10984 0.0946,0 0.22479,-0.0808 0.28923,-0.17953 0.0644,-0.0987 0.15546,-0.16011 0.20227,-0.13639 0.0983,0.0498 0.50961,-0.31678 0.50961,-0.45426 0,-0.0705 -0.0637,-0.0662 -0.27022,0.0182 -0.23187,0.0949 -0.25392,0.12704 -0.15537,0.2268 0.0802,0.0812 0.0823,0.10026 0.007,0.0632 -0.0604,-0.0297 -0.18332,0.009 -0.27985,0.0881 -0.1703,0.13965 -0.17254,0.13932 -0.21229,-0.0312 -0.0221,-0.0948 0.004,-0.18538 0.0579,-0.20132 0.17671,-0.0522 0.006,-0.11698 -0.19434,-0.0739 -0.11718,0.0251 -0.19588,0.0988 -0.19588,0.18342 0,0.0778 -0.04,0.12117 -0.0888,0.0964 -0.0488,-0.0248 -0.0888,-0.0138 -0.0888,0.0243 0,0.1296 0.25439,0.1529 0.28657,0.0263 0.0238,-0.0937 0.045,-0.0823 0.0883,0.0476 0.0313,0.0941 0.0333,0.1516 0.004,0.12787 -0.0917,-0.0752 -0.26703,0.20329 -0.24736,0.39276 0.0104,0.1001 -0.055,0.26014 -0.14529,0.35564 -0.0903,0.0955 -0.1633,0.21016 -0.16222,0.25481 0.003,0.10359 0.33489,-0.23069 0.44346,-0.44601 z m 3.81858,0.25418 c 0.0902,-0.0901 0.19006,-0.28666 0.22179,-0.43682 0.049,-0.23178 0.0919,-0.27302 0.28422,-0.27302 0.22026,0 0.22518,0.0106 0.17786,0.38222 -0.0459,0.36031 -0.0421,0.36986 0.0664,0.16653 0.0633,-0.11863 0.0967,-0.25491 0.0743,-0.30284 -0.0224,-0.0479 0.0239,-0.18971 0.10293,-0.31505 0.13135,-0.20828 0.17393,-0.22505 0.49473,-0.19483 0.30062,0.0283 0.35101,0.0131 0.35101,-0.10629 0,-0.0767 -0.0448,-0.13936 -0.0996,-0.13936 -0.0689,0 -0.0655,-0.0338 0.0109,-0.10921 0.0743,-0.0734 0.0784,-0.1092 0.0126,-0.1092 -0.0539,0 -0.12303,0.0819 -0.15367,0.18201 -0.0785,0.25648 -0.18419,0.22602 -0.25256,-0.0728 -0.0527,-0.23044 -0.22781,-0.36633 -0.22781,-0.17681 0,0.0429 -0.0636,0.13017 -0.14137,0.19393 -0.0936,0.0768 -0.12436,0.18562 -0.091,0.32242 0.0374,0.15337 0.0161,0.20649 -0.0828,0.20649 -0.0763,0 -0.15544,-0.0913 -0.18531,-0.21376 -0.048,-0.1968 -0.29855,-0.38209 -0.29855,-0.22078 0,0.12867 -0.1775,0.0729 -0.18112,-0.0569 -0.002,-0.0872 -0.0503,-0.0585 -0.15177,0.091 -0.0815,0.12013 -0.13931,0.24431 -0.12842,0.27596 0.0109,0.0317 -0.0216,0.12101 -0.0722,0.19858 -0.0734,0.11246 -0.066,0.13281 0.0367,0.1005 0.0948,-0.0298 0.11602,-5.8e-4 0.0805,0.11085 -0.0265,0.0832 -0.0882,0.15135 -0.13705,0.15135 -0.051,0 -0.0627,0.0697 -0.0276,0.16381 0.0337,0.0901 0.0649,0.20476 0.0695,0.25481 0.0118,0.12851 0.0602,0.1143 0.24758,-0.0728 z m 0.44145,-0.12741 c 0,-0.04 -0.0423,-0.0728 -0.094,-0.0728 -0.0517,0 -0.0693,0.0328 -0.0392,0.0728 0.0302,0.04 0.0725,0.0728 0.094,0.0728 0.0215,0 0.0392,-0.0328 0.0392,-0.0728 z m 6.12449,-0.19624 c 0.13121,-0.12375 0.16992,-0.20667 0.10479,-0.22448 -0.28318,-0.0774 -0.008,-0.22977 0.50987,-0.28248 0.27919,-0.0284 0.29282,-0.0209 0.17756,0.0983 -0.11465,0.11856 -0.10378,0.11807 0.13298,-0.006 0.20053,-0.10514 0.36216,-0.12635 0.72734,-0.0954 0.34441,0.0292 0.49743,0.0122 0.57428,-0.0638 0.12102,-0.11958 1.05963,-0.14678 1.05963,-0.0307 0,0.11921 0.23191,0.083 0.45627,-0.0713 0.17646,-0.12134 0.18891,-0.15527 0.0788,-0.21457 -0.0846,-0.0455 -0.14986,-0.0452 -0.18467,9.9e-4 -0.0296,0.0393 -0.13054,0.0515 -0.2243,0.0271 -0.15604,-0.0406 -0.15732,-0.0374 -0.0151,0.0376 0.0855,0.045 0.15537,0.11813 0.15537,0.16238 0,0.0443 -0.0799,0.0212 -0.17757,-0.0513 -0.209,-0.1551 -0.22842,-0.25481 -0.0496,-0.25481 0.0704,0 0.15594,-0.0372 0.19018,-0.0826 0.0435,-0.0577 -0.0281,-0.0717 -0.23802,-0.0464 -0.16514,0.0199 -0.55573,-0.008 -0.86798,-0.0613 -0.31225,-0.0536 -0.5988,-0.0817 -0.63677,-0.0624 -0.12751,0.0646 -1.30764,0.0894 -1.42501,0.0299 -0.0638,-0.0323 -0.15793,-0.0373 -0.20909,-0.0109 -0.0512,0.0263 -0.13297,0.0505 -0.1818,0.0537 -0.0488,0.003 -0.19606,0.0316 -0.32717,0.0632 -0.22992,0.0554 -0.23766,0.0742 -0.21799,0.52888 0.0192,0.44411 -0.05,0.64825 -0.15051,0.44384 -0.0314,-0.0639 -0.0471,-0.0656 -0.052,-0.006 -0.0102,0.12508 0.24716,0.31461 0.42723,0.31461 0.0854,0 0.24885,-0.0883 0.3633,-0.19624 z m -0.40078,0.047 c -0.0844,-0.11193 0.0312,-0.18415 0.14515,-0.0907 0.0638,0.0523 0.0653,0.093 0.005,0.12374 -0.0497,0.0252 -0.11712,0.0103 -0.1498,-0.033 z m -0.13042,-0.50167 c 0,-0.0377 0.04,-0.0888 0.0888,-0.1135 0.0488,-0.0247 0.0888,0.006 0.0888,0.0685 0,0.0624 -0.04,0.1135 -0.0888,0.1135 -0.0488,0 -0.0888,-0.0308 -0.0888,-0.0685 z m -6.91881,0.50533 c 0.0443,0 0.10598,-0.13082 0.13716,-0.29071 0.0312,-0.15989 0.13153,-0.36148 0.223,-0.44797 0.18711,-0.1769 0.21302,-0.28058 0.0701,-0.28058 -0.0529,0 -0.0779,-0.0409 -0.0555,-0.091 0.0224,-0.05 0.0856,-0.0828 0.14057,-0.0728 0.0567,0.0103 0.0999,-0.0762 0.0999,-0.20021 0,-0.12013 0.0353,-0.21841 0.0784,-0.21841 0.0431,0 0.0975,-0.0819 0.12086,-0.18201 0.0583,-0.25009 -0.12003,-0.23464 -0.50695,0.0439 -0.32783,0.23604 -0.43431,0.57489 -0.18065,0.57489 0.0733,0 0.13317,0.0532 0.13317,0.11812 0,0.0952 -0.0251,0.10102 -0.12928,0.0301 -0.16037,-0.10914 -0.31463,-0.0391 -0.31463,0.14296 0,0.0754 -0.0438,0.15921 -0.0973,0.18634 -0.0535,0.0271 -0.0802,0.14516 -0.0592,0.26231 0.021,0.11715 0.007,0.22898 -0.032,0.24852 -0.12124,0.0614 0.0274,0.25966 0.16282,0.21706 0.0709,-0.0223 0.16519,-0.0406 0.20945,-0.0406 z m -2.3312,-0.35947 c 0.0222,-0.0546 -0.0111,-0.0819 -0.0777,-0.0637 -0.0641,0.0175 -0.134,0.0748 -0.15537,0.1274 -0.0222,0.0546 0.0111,0.0819 0.0777,0.0637 0.0641,-0.0175 0.134,-0.0749 0.15537,-0.12741 z m -1.84779,-0.12584 c 0,-0.0767 0.0488,-0.0973 0.15267,-0.0647 0.084,0.0264 0.12719,0.0272 0.0961,0.002 -0.0311,-0.0255 0.007,-0.10774 0.0857,-0.18269 0.18474,-0.17694 0.21086,-0.33677 0.055,-0.33677 -0.0677,0 -0.12315,0.0548 -0.12315,0.12179 0,0.067 -0.0958,0.15759 -0.21294,0.20135 -0.14839,0.0554 -0.20894,0.1341 -0.19976,0.25951 0.014,0.1911 0.14635,0.19094 0.14635,-1.5e-4 z m 13.23663,0.0541 c -0.0688,-0.0357 -0.17868,-0.0481 -0.24415,-0.0275 -0.18774,0.0591 -0.14,0.0948 0.12512,0.0936 0.17769,-8e-4 0.2101,-0.0188 0.11903,-0.0661 z m -12.17124,-0.0784 c 0,-0.04 -0.0176,-0.0728 -0.0392,-0.0728 -0.0215,0 -0.0638,0.0328 -0.094,0.0728 -0.0302,0.04 -0.0126,0.0728 0.0392,0.0728 0.0517,0 0.094,-0.0328 0.094,-0.0728 z m 1.86443,0.0407 c 0,-0.0177 -0.04,-0.0524 -0.0888,-0.0771 -0.0488,-0.0247 -0.0888,-0.0103 -0.0888,0.0321 0,0.0424 0.04,0.0771 0.0888,0.0771 0.0488,0 0.0888,-0.0144 0.0888,-0.0321 z m 13.35688,-0.34334 c 0.17509,-0.0654 0.20334,-0.10607 0.12649,-0.18201 -0.14507,-0.14334 -0.25479,-0.11939 -0.25479,0.0556 0,0.10644 -0.0408,0.14057 -0.13317,0.11149 -0.0733,-0.023 -0.13317,-0.0102 -0.13317,0.0286 0,0.0932 0.11967,0.089 0.39464,-0.0137 z m -12.96141,-0.18818 c 0.0818,-0.17481 0.0194,-0.16974 -0.19878,0.0161 -0.18354,0.15637 -0.18579,0.16749 -0.027,0.13344 0.0953,-0.0204 0.19687,-0.0877 0.22581,-0.14959 z m 4.04365,0.009 c 0,-0.12067 0.0409,-0.15092 0.16755,-0.12377 0.29633,0.0635 0.2663,-0.0778 -0.0878,-0.41358 -0.19007,-0.18019 -0.34568,-0.28667 -0.34581,-0.23661 -9e-5,0.05 0.0354,0.091 0.079,0.091 0.0436,0 0.10399,0.0528 0.13418,0.11731 0.0393,0.084 0.0167,0.1053 -0.0793,0.0751 -0.14086,-0.0443 -0.14849,-0.0269 -0.17617,0.40279 -0.0141,0.21919 0.0122,0.26576 0.14555,0.25753 0.10466,-0.006 0.16278,-0.0671 0.16278,-0.16976 z m 0.29846,0.0815 c -0.054,-0.11546 -0.20967,-0.15149 -0.20967,-0.0485 0,0.077 0.097,0.15775 0.18957,0.15775 0.0392,0 0.0482,-0.0492 0.0201,-0.10921 z m 0.50058,0.0407 c 0,-0.0377 -0.04,-0.0888 -0.0888,-0.1135 -0.0488,-0.0247 -0.0888,0.006 -0.0888,0.0685 0,0.0624 0.04,0.11351 0.0888,0.11351 0.0488,0 0.0888,-0.0308 0.0888,-0.0685 z m 9.6823,-0.18136 c -0.06,-0.0593 -0.078,-0.15016 -0.04,-0.20197 0.0501,-0.0683 0.0272,-0.0663 -0.0833,0.007 -0.1438,0.0957 -0.14351,0.1085 0.005,0.22722 0.18569,0.14829 0.27599,0.12349 0.11816,-0.0325 z m -17.85028,-0.43102 c 0,-0.0409 -0.11205,0.0136 -0.24901,0.12124 -0.13695,0.10759 -0.30675,0.19613 -0.37732,0.19674 -0.10763,9.4e-4 -0.10854,0.0114 -0.006,0.0648 0.12882,0.0669 0.63198,-0.23788 0.63198,-0.38281 z m 16.60231,0.35327 c 0,-0.0601 -0.0615,-0.10921 -0.13667,-0.10921 -0.11292,0 -0.11678,0.0185 -0.0222,0.10644 0.14554,0.13531 0.15887,0.13554 0.15887,0.003 z m 0.6246,-0.003 c 0.0808,-0.0798 0.0861,-0.13485 0.0186,-0.19022 -0.12063,-0.0989 -0.25323,-0.033 -0.31344,0.15577 -0.0563,0.17642 0.12922,0.19809 0.29483,0.0344 z m -11.54585,-0.0859 c 0.0982,-0.069 0.17797,-0.15905 0.17722,-0.20021 -7.4e-4,-0.0412 -0.0401,-0.0257 -0.0874,0.0344 -0.0696,0.0883 -0.0863,0.0779 -0.0874,-0.0546 -8e-4,-0.0976 0.0525,-0.1638 0.13181,-0.1638 0.15144,0 0.18073,-0.18572 0.0405,-0.25679 -0.13189,-0.0668 -0.35007,0.10176 -0.29207,0.22571 0.0275,0.0587 -0.004,0.10388 -0.0727,0.10388 -0.1401,0 -0.38105,0.28313 -0.29853,0.3508 0.0305,0.025 0.0925,-0.003 0.13797,-0.0617 0.0693,-0.0898 0.0828,-0.0866 0.0839,0.0203 0.002,0.15909 0.0426,0.15939 0.26669,0.002 z m -8.16697,-0.0566 c 0.0617,-0.0609 0.0713,-0.1092 0.0217,-0.1092 -0.0488,0 -0.13852,0.0491 -0.19931,0.1092 -0.0617,0.0609 -0.0713,0.10921 -0.0217,0.10921 0.0488,0 0.13852,-0.0491 0.1993,-0.10921 z m 3.10739,-0.004 c 0,0.0766 0.22445,-0.12367 0.34423,-0.30721 0.10495,-0.16081 0.0489,-0.20969 -0.12227,-0.10658 -0.0488,0.0294 -0.18632,0.16815 -0.30552,0.3083 -0.12711,0.14945 -0.15464,0.21349 -0.0666,0.15489 0.0826,-0.055 0.15015,-0.0772 0.15015,-0.0494 z m 0.82024,-0.20906 c -0.0285,-0.0378 -0.0821,-0.005 -0.11906,0.072 -0.10887,0.22799 -0.0889,0.28813 0.0456,0.13729 0.0689,-0.0773 0.10197,-0.17147 0.0735,-0.20929 z m 7.84197,-0.0215 c -0.0182,-0.1889 -0.0769,-0.35544 -0.13044,-0.37009 -0.0536,-0.0147 -0.0974,-0.1018 -0.0974,-0.19366 0,-0.31286 -0.54872,-0.50518 -0.71489,-0.25056 -0.0463,0.0709 -0.0841,0.15566 -0.0841,0.18832 9e-5,0.0973 0.58413,0.60542 0.69584,0.60542 0.0567,0 0.10313,0.0601 0.10313,0.13347 0,0.0734 0.0266,0.15532 0.0592,0.18201 0.14485,0.11878 0.1993,0.0236 0.16869,-0.29491 z m -6.709,0.11048 c 0,-0.0679 0.0237,-0.0679 0.10654,0 0.13162,0.10793 0.51494,0.11557 0.51494,0.0103 0,-0.0424 0.0333,-0.0602 0.074,-0.0396 0.0407,0.0206 0.08,-0.002 0.0873,-0.0503 0.0508,-0.3349 0.13894,-0.56103 0.21871,-0.56103 0.0514,0 0.0707,-0.0187 0.0427,-0.0416 -0.0766,-0.0628 -0.7918,0.32825 -0.73591,0.40241 0.0267,0.0354 -0.0917,0.10227 -0.26307,0.14865 -0.31488,0.0852 -0.42373,0.21863 -0.17838,0.21863 0.0732,0 0.13317,-0.0393 0.13317,-0.0874 z m -4.66107,-0.0583 c 0.0302,-0.04 0.0149,-0.0728 -0.0339,-0.0728 -0.0488,0 -0.11347,0.0328 -0.14365,0.0728 -0.0302,0.04 -0.0149,0.0728 0.0339,0.0728 0.0488,0 0.11348,-0.0328 0.14366,-0.0728 z m 20.12549,-0.0886 c -0.0637,-0.0522 -0.10506,-0.0565 -0.10506,-0.0109 0,0.0972 0.105,0.18328 0.16425,0.13469 0.0252,-0.0207 -0.001,-0.0764 -0.0592,-0.12377 z m -21.9456,-0.007 c 4e-5,-0.0324 0.0461,-0.0356 0.10232,-0.007 0.0562,0.0285 0.14613,0.003 0.19976,-0.0567 0.0536,-0.0597 0.15743,-0.13053 0.23068,-0.15744 0.0733,-0.0269 -0.007,-0.0315 -0.17756,-0.0102 -0.17091,0.0213 -0.32406,0.0708 -0.34034,0.10991 -0.0163,0.0391 -0.12614,0.0712 -0.24415,0.0712 -0.11801,0 -0.21456,0.0293 -0.21456,0.0651 0,0.0358 0.0999,0.0604 0.2219,0.0546 0.12204,-0.006 0.22192,-0.037 0.22195,-0.0694 z m 2.21963,-0.13981 c 0,-0.0426 -0.0564,-0.0355 -0.13318,0.0167 -0.0732,0.0498 -0.13317,0.10198 -0.13317,0.11584 0,0.0139 0.0599,0.006 0.13317,-0.0167 0.0733,-0.023 0.13318,-0.0752 0.13318,-0.11583 z m 2.5303,-0.40911 c 0.15371,-0.0657 0.14179,-0.0722 -0.0888,-0.0485 -0.14649,0.0151 -0.29528,0.0297 -0.33065,0.0325 -0.0834,0.007 -0.33561,0.40632 -0.33389,0.52923 7.1e-4,0.052 0.13057,-0.0251 0.28854,-0.17132 0.15797,-0.14627 0.36712,-0.30012 0.46479,-0.34188 z m 6.88985,0.40425 c -0.11395,-0.0935 -0.22951,-0.0212 -0.14515,0.0907 0.0327,0.0434 0.10009,0.0582 0.1498,0.033 0.0606,-0.0307 0.0591,-0.0715 -0.005,-0.12374 z m -26.93842,-0.0649 c -0.0284,-0.0581 -0.0494,-0.0408 -0.0536,0.044 -0.004,0.0768 0.0171,0.11975 0.0466,0.0956 0.0295,-0.0242 0.0327,-0.087 0.007,-0.13954 z m 18.36333,-0.20482 c 0.24325,-0.16019 0.4831,-0.3183 0.53299,-0.35135 0.0499,-0.0331 0.13978,-0.0467 0.19976,-0.0303 0.06,0.0164 0.10905,-0.006 0.10905,-0.0491 0,-0.0434 0.0699,-0.0794 0.15537,-0.08 0.12889,-9.3e-4 0.13339,-0.0125 0.0264,-0.068 -0.0709,-0.0368 -0.1708,-0.0464 -0.22196,-0.0213 -0.0512,0.0251 -0.0382,-0.01 0.0288,-0.0776 0.16745,-0.16929 0.0556,-0.15438 -0.25513,0.034 -0.1426,0.0864 -0.23469,0.1898 -0.20465,0.22966 0.0325,0.0431 0.009,0.0494 -0.0578,0.0155 -0.0618,-0.0313 -0.13792,-0.0265 -0.16909,0.0107 -0.0312,0.0372 -0.24516,0.17727 -0.47556,0.31123 -0.3895,0.22645 -0.47323,0.36778 -0.2179,0.36778 0.059,0 0.30639,-0.13107 0.54965,-0.29127 z m -2.08802,0.14795 c 0,-0.0388 -0.0599,-0.0517 -0.13317,-0.0286 -0.0733,0.023 -0.13317,0.0548 -0.13317,0.0705 0,0.0157 0.0599,0.0286 0.13317,0.0286 0.0732,0 0.13317,-0.0317 0.13317,-0.0705 z m 0.30225,-0.0313 c 0.0623,0.0196 0.16956,-0.0211 0.23842,-0.0905 0.1114,-0.11224 0.10727,-0.12063 -0.0374,-0.0761 -0.0894,0.0275 -0.21929,0.05 -0.28854,0.05 -0.0692,0 -0.12276,0.0573 -0.11891,0.1274 0.004,0.0701 0.0264,0.0883 0.0501,0.0405 0.0237,-0.0478 0.0941,-0.0709 0.15633,-0.0513 z m 19.69955,-0.0439 c 0.0256,-0.0801 0.0102,-0.12735 -0.034,-0.10491 -0.0443,0.0224 -0.0805,0.088 -0.0805,0.14571 0,0.15068 0.0603,0.1292 0.11454,-0.0408 z m -15.12012,-0.0545 c -8e-4,-0.0786 -0.0264,-0.0967 -0.0666,-0.0473 -0.0359,0.0441 -0.12516,0.0988 -0.1984,0.12166 -0.089,0.0278 -0.0669,0.0435 0.0666,0.0473 0.1342,0.004 0.19931,-0.0361 0.1984,-0.12166 z m 6.21612,0.0139 c 0,-0.0624 -0.0406,-0.0929 -0.0902,-0.0678 -0.0496,0.0251 -0.0672,0.0762 -0.0392,0.1135 0.0761,0.10098 0.12938,0.0821 0.12938,-0.0457 z m -12.40734,-0.0803 c -0.061,-0.0202 -0.16092,-0.0202 -0.22195,0 -0.061,0.0202 -0.0111,0.0367 0.11097,0.0367 0.12208,0 0.17202,-0.0165 0.11098,-0.0367 z m 8.05701,-0.17019 c 0,-0.04 -0.0423,-0.0728 -0.094,-0.0728 -0.0517,0 -0.0693,0.0328 -0.0392,0.0728 0.0302,0.04 0.0725,0.0728 0.094,0.0728 0.0215,0 0.0392,-0.0328 0.0392,-0.0728 z m 5.77085,0 c 0,-0.04 -0.04,-0.0728 -0.0888,-0.0728 -0.0488,0 -0.0888,0.0328 -0.0888,0.0728 0,0.04 0.0399,0.0728 0.0888,0.0728 0.0488,0 0.0888,-0.0328 0.0888,-0.0728 z m -7.03785,-0.044 c -0.0295,-0.0242 -0.10608,-0.0268 -0.17017,-0.006 -0.0708,0.0232 -0.0498,0.0405 0.0536,0.044 0.0936,0.003 0.14603,-0.014 0.11653,-0.0382 z m 14.76192,-0.0695 c 0,-0.0624 0.0383,-0.0941 0.0852,-0.0703 0.11686,0.0592 0.44753,-0.11951 0.44753,-0.24189 0,-0.0547 -0.0514,-0.0833 -0.11415,-0.0636 -0.0682,0.0215 -0.11415,-0.0194 -0.11415,-0.10142 0,-0.0755 0.0323,-0.13733 0.0718,-0.13733 0.0395,0 0.005,-0.0839 -0.0771,-0.18636 -0.0995,-0.12457 -0.17012,-0.15819 -0.21291,-0.10143 -0.0469,0.0622 -0.0805,0.0631 -0.12562,0.003 -0.0339,-0.045 -0.0988,-0.0629 -0.14428,-0.0399 -0.0455,0.023 -0.0826,-0.0127 -0.0826,-0.0794 0,-0.0826 0.0465,-0.10665 0.14573,-0.0754 0.12359,0.0389 0.12815,0.0285 0.03,-0.0685 -0.0848,-0.0838 -0.13303,-0.0913 -0.18058,-0.0282 -0.045,0.0597 -0.0941,0.0413 -0.16008,-0.0598 -0.0524,-0.0802 -0.0719,-0.16497 -0.0435,-0.18831 0.0285,-0.0233 -0.05,-0.0634 -0.17426,-0.0889 -0.12431,-0.0256 -0.24821,-0.094 -0.27534,-0.15194 -0.0271,-0.058 -0.24897,-0.18126 -0.49296,-0.27396 -0.24399,-0.0927 -0.42635,-0.18271 -0.40523,-0.20003 0.0211,-0.0173 -0.0367,-0.0315 -0.12843,-0.0315 -0.0917,0 -0.14912,0.0235 -0.1275,0.0522 0.0216,0.0287 0.001,0.0715 -0.0455,0.0952 -0.0805,0.0408 0.52254,0.62229 0.6453,0.62229 0.032,0 0.0581,-0.071 0.0581,-0.15774 0,-0.17418 0.0899,-0.1423 0.12317,0.0437 0.0116,0.0647 0.1539,0.17612 0.31625,0.24752 0.35501,0.15612 0.77722,0.75223 0.72281,1.02049 -0.0112,0.0554 0.0229,0.0766 0.0783,0.0485 0.0671,-0.034 0.08,0.01 0.0407,0.1383 -0.036,0.11753 -0.0206,0.18811 0.0408,0.18811 0.0541,0 0.0984,-0.0511 0.0984,-0.11351 z m -20.10921,-0.0321 c 0.0694,-0.0921 -0.0481,-0.0921 -0.22196,0 -0.11477,0.0608 -0.11242,0.0707 0.017,0.0717 0.0826,5.8e-4 0.17482,-0.0316 0.205,-0.0717 z m -2.17517,-0.146 c 0.1025,-0.0546 0.0784,-0.0676 -0.10458,-0.0563 -0.13076,0.008 -0.2183,0.0405 -0.19452,0.0721 0.0566,0.0751 0.13627,0.0709 0.2991,-0.0158 z m 0.62147,-0.1937 c 0,-0.0581 0.0382,-0.0863 0.0849,-0.0627 0.0467,0.0237 0.0622,0.0915 0.0345,0.15073 -0.0357,0.0763 -0.009,0.0946 0.0926,0.0627 0.0787,-0.0248 0.14306,-0.0673 0.14306,-0.0944 0,-0.0272 0.0699,-0.0544 0.15537,-0.0606 0.57158,-0.0411 1.06832,-0.12771 1.21832,-0.21239 0.0963,-0.0544 0.26155,-0.0989 0.36718,-0.0989 0.10563,0 0.30648,-0.0489 0.44635,-0.10875 0.13986,-0.0598 0.3342,-0.11155 0.43186,-0.11496 0.0977,-0.003 0.13324,-0.0212 0.079,-0.0395 -0.0542,-0.0183 -0.27392,0.002 -0.4883,0.0442 -0.21438,0.0426 -0.50382,0.0919 -0.64319,0.10937 -0.13937,0.0175 -0.31915,0.0485 -0.39952,0.0688 -0.0804,0.0204 -0.49682,0.0693 -0.92545,0.10867 -0.84813,0.078 -1.04335,0.13109 -0.85043,0.23134 0.0907,0.0471 0.0766,0.0631 -0.0571,0.0648 -0.13872,0.002 -0.1502,0.0164 -0.0524,0.0672 0.16171,0.0839 0.36318,0.0198 0.36318,-0.11567 z m 3.24638,-0.17765 c 0.0274,-0.0364 -0.0625,-0.0269 -0.19992,0.021 -0.36848,0.1286 -0.46902,0.22215 -0.13664,0.12714 0.15767,-0.0451 0.30913,-0.11174 0.33656,-0.14814 z m 11.49151,-0.0244 c 0,-0.0177 -0.04,-0.0524 -0.0888,-0.0771 -0.0488,-0.0247 -0.0888,-0.0103 -0.0888,0.0321 0,0.0424 0.04,0.0771 0.0888,0.0771 0.0488,0 0.0888,-0.0144 0.0888,-0.0321 z m 6.48111,-0.0407 c 0,-0.04 -0.04,-0.0728 -0.0888,-0.0728 -0.0488,0 -0.0888,0.0328 -0.0888,0.0728 0,0.04 0.04,0.0728 0.0888,0.0728 0.0488,0 0.0888,-0.0328 0.0888,-0.0728 z m -24.31506,-0.19599 c 0.0828,-0.0837 0.0863,-0.10565 0.0109,-0.0685 -0.13556,0.0668 -0.14028,0.0135 -0.0173,-0.19532 0.0905,-0.15362 0.089,-0.15422 -0.0444,-0.0177 -0.12193,0.12479 -0.19424,0.4047 -0.10455,0.4047 0.0184,0 0.0884,-0.0554 0.15536,-0.12318 z m 7.06856,-0.14314 c 0.0512,0.0259 0.20704,-0.002 0.34641,-0.0612 0.30328,-0.12971 0.26559,-0.1333 -0.31933,-0.0304 -0.42751,0.0752 -0.51883,0.13026 -0.39047,0.23551 0.0318,0.0261 0.10564,-0.006 0.1641,-0.0718 0.0585,-0.0656 0.14814,-0.098 0.19929,-0.0721 z m -4.35167,-0.0689 c -0.0295,-0.0242 -0.10608,-0.0268 -0.17017,-0.006 -0.0708,0.0232 -0.0498,0.0405 0.0536,0.044 0.0936,0.003 0.14603,-0.014 0.11653,-0.0382 z m 15.30778,-0.0834 c 0.19123,-0.15659 -0.0401,-0.25856 -0.47157,-0.20786 -0.21176,0.0249 -0.45494,0.052 -0.54039,0.0602 -0.0855,0.008 -0.15533,0.0653 -0.15529,0.12681 7e-5,0.088 0.11252,0.11181 0.5281,0.11181 0.30394,0 0.57517,-0.0386 0.63915,-0.091 z m 4.2953,-0.0298 c 0.25838,-0.14519 0.26878,-0.16633 0.1355,-0.27562 -0.0794,-0.0651 -0.23282,-0.11837 -0.34094,-0.11837 -0.22498,0 -0.26045,0.0787 -0.0634,0.14074 0.0733,0.023 0.13317,0.0921 0.13317,0.15339 0,0.0613 -0.0599,0.11149 -0.13317,0.11149 -0.0733,0 -0.13317,0.0328 -0.13317,0.0728 0,0.1089 0.0925,0.0895 0.40203,-0.0844 z m -18.9816,0.0404 c -0.0295,-0.0242 -0.10608,-0.0268 -0.17017,-0.006 -0.0708,0.0232 -0.0498,0.0405 0.0536,0.044 0.0936,0.003 0.14603,-0.014 0.11653,-0.0382 z m 0.55674,-0.0288 c 0,-0.0854 -0.0682,-0.0854 -0.31074,0 -0.15735,0.0554 -0.14976,0.0631 0.0666,0.0677 0.13429,0.003 0.24416,-0.0276 0.24416,-0.0677 z m 0.57708,0 c 0.13951,-0.0492 0.10145,-0.0634 -0.17756,-0.0666 -0.2605,-0.003 -0.31965,0.0148 -0.22196,0.0666 0.15534,0.0823 0.16591,0.0823 0.39952,0 z m 1.09119,-0.17889 c 0.10553,-0.0865 -0.0434,-0.0826 -0.38093,0.01 l -0.35513,0.0975 0.34394,-0.034 c 0.18916,-0.0187 0.36561,-0.0518 0.39212,-0.0735 z m 15.44843,-0.0915 c -0.0163,-0.0777 0.0409,-0.13411 0.15148,-0.14952 0.14875,-0.0207 0.15595,-0.0117 0.0444,0.0559 -0.11143,0.0675 -0.10417,0.0763 0.0444,0.0542 0.0977,-0.0145 0.16547,-0.0706 0.15068,-0.12465 -0.0148,-0.054 0.0248,-0.12439 0.0879,-0.15638 0.0722,-0.0366 0.0314,-0.0509 -0.11005,-0.0385 -0.12365,0.0108 -0.27031,0.0427 -0.32591,0.0709 -0.10153,0.0515 -0.15542,0.006 -0.35178,-0.29696 -0.0881,-0.13592 -0.0834,-0.16381 0.0276,-0.16381 0.0736,0 0.22101,0.037 0.32766,0.0822 0.16579,0.0703 0.1585,0.0512 -0.0502,-0.13139 -0.3013,-0.26363 -0.30906,-0.34401 -0.0276,-0.28609 0.33335,0.0686 0.34439,-0.0617 0.0268,-0.31654 -0.21177,-0.16997 -0.24086,-0.21812 -0.11018,-0.18233 0.22732,0.0623 -0.23884,-0.21502 -0.68453,-0.40716 -0.33178,-0.14303 -0.68564,-0.20589 -0.43986,-0.0781 0.0652,0.0339 0.11626,0.0907 0.11345,0.12629 -0.003,0.0356 0.16296,0.13838 0.36837,0.22848 0.37873,0.16611 0.27385,0.22516 -0.15978,0.09 -0.40421,-0.12602 -1.89114,-0.0939 -2.43156,0.0525 -0.61035,0.16537 -0.70376,0.31655 -0.16761,0.27125 0.21061,-0.0178 0.76246,-0.0462 1.22635,-0.0631 0.67772,-0.0247 0.87355,-0.008 0.99671,0.0829 0.0843,0.0625 0.12912,0.14571 0.0996,0.18488 -0.0295,0.0392 -0.001,0.0978 0.063,0.13033 0.0961,0.0487 0.0962,0.0793 5.4e-4,0.17387 -0.098,0.0968 -0.0925,0.11475 0.035,0.11475 0.1217,0 0.13972,0.0425 0.0926,0.21842 -0.0368,0.13741 -0.023,0.21841 0.0373,0.21841 0.0527,0 0.0958,-0.0655 0.0958,-0.14561 0,-0.15814 0.21793,-0.19334 0.44391,-0.0717 0.10982,0.0591 0.1122,0.0828 0.0136,0.13495 -0.0951,0.0503 -0.0769,0.10097 0.0888,0.24713 0.24855,0.21932 0.35884,0.24473 0.32324,0.0745 z m -14.74177,-0.0667 c 0.10986,-0.0241 0.19976,-0.0939 0.19976,-0.15498 0,-0.0926 -0.0908,-0.10331 -0.54572,-0.0643 -0.30015,0.0257 -0.70966,0.05 -0.91002,0.054 -0.306,0.006 -0.32878,0.016 -0.14235,0.0615 0.21346,0.0522 0.59659,0.0416 1.06539,-0.0294 0.12208,-0.0185 0.17202,-0.0158 0.11098,0.006 -0.11982,0.0427 -0.1536,0.17369 -0.0444,0.17206 0.0366,-5.8e-4 0.15648,-0.0208 0.26635,-0.0449 z m 14.1851,-0.072 c -0.0791,-0.0648 -0.17065,-0.0958 -0.20353,-0.0688 -0.0329,0.027 -10e-4,0.0795 0.0708,0.11676 0.20975,0.10877 0.28893,0.0802 0.13272,-0.0479 z m -15.87262,-0.0575 c 0.0288,-0.0236 -0.27619,-0.043 -0.67786,-0.043 -0.40166,0 -0.71181,0.0246 -0.68922,0.0546 0.0475,0.0632 1.28869,0.0527 1.36708,-0.0116 z m -1.59928,-0.0142 c -0.0295,-0.0242 -0.10608,-0.0268 -0.17017,-0.006 -0.0708,0.0232 -0.0498,0.0405 0.0536,0.044 0.0936,0.003 0.14603,-0.014 0.11653,-0.0382 z m 3.97449,-0.0293 c -0.0642,-0.0853 -0.39915,-0.0982 -0.39915,-0.0154 0,0.0313 0.10207,0.0638 0.22683,0.0723 0.13145,0.009 0.20391,-0.015 0.17232,-0.0569 z m 10.86288,-0.0836 c 0.42666,-0.0808 0.98624,-0.38006 0.87742,-0.46929 -0.0531,-0.0436 -0.57727,-0.0536 -0.91632,-0.0176 -0.23575,0.0251 -0.46601,0.20693 -0.262,0.20693 0.0752,0 0.13667,0.0328 0.13667,0.0728 0,0.0888 -0.13835,0.0936 -0.33877,0.0117 -0.0913,-0.0373 -0.23479,-0.0246 -0.36833,0.0327 -0.15969,0.0685 -0.18368,0.10309 -0.0888,0.12816 0.0715,0.0189 0.18994,0.0507 0.26319,0.0708 0.20152,0.0551 0.21977,0.0542 0.69692,-0.0361 z M 137.91666,96.607 c 0.20088,-0.16472 0.15344,-0.25661 -0.0849,-0.16439 -0.11643,0.0451 -0.19206,0.12388 -0.16807,0.17516 0.0557,0.119 0.0968,0.11725 0.25293,-0.0108 z m 11.49098,-0.005 c 0,-0.0601 -0.0167,-0.1092 -0.0371,-0.1092 -0.0204,0 -0.10497,-0.0214 -0.18789,-0.0474 -0.13017,-0.041 -0.1368,-0.026 -0.0485,0.1092 0.11784,0.18056 0.27355,0.20756 0.27355,0.0474 z m -12.01749,-0.38077 0.0296,-0.15927 -0.30962,0.14981 c -0.3851,0.18632 -0.39761,0.27739 -0.0297,0.21568 0.19681,-0.033 0.28879,-0.0943 0.30963,-0.20622 z m 9.83721,0.20555 c 0.0274,-0.0363 -0.0302,-0.0489 -0.12794,-0.0279 -0.2073,0.0445 -0.23351,0.0939 -0.0498,0.0939 0.0704,0 0.15032,-0.0297 0.17769,-0.066 z m -12.20247,-0.17907 c 0,-0.0461 -0.0899,-0.12981 -0.19976,-0.18592 -0.17813,-0.091 -0.1875,-0.0898 -0.0865,0.0104 0.0925,0.0918 0.0904,0.11958 -0.0114,0.15161 -0.0685,0.0216 -0.17444,8.3e-4 -0.23532,-0.0461 -0.0858,-0.0661 -0.10102,-0.0608 -0.0676,0.0239 0.0244,0.0618 0.12781,0.10135 0.23821,0.0911 0.1102,-0.0102 0.17156,0.0132 0.14097,0.0538 -0.031,0.0411 0.005,0.0533 0.0836,0.0285 0.0758,-0.0238 0.13778,-0.0811 0.13778,-0.12726 z m 2.84104,0.0995 c 0,-0.04 -0.0423,-0.0728 -0.094,-0.0728 -0.0517,0 -0.0693,0.0328 -0.0391,0.0728 0.0302,0.04 0.0725,0.0728 0.094,0.0728 0.0215,0 0.0391,-0.0328 0.0391,-0.0728 z m -3.72886,-0.17352 c 0,-0.0554 -0.0799,-0.11785 -0.17757,-0.13879 -0.21885,-0.0469 -0.23359,0.0599 -0.0222,0.16087 0.20087,0.0959 0.19976,0.0961 0.19976,-0.0221 z m 15.98083,-0.0467 c 0,-0.0896 -0.38157,-0.21831 -0.76897,-0.25941 -0.22474,-0.0239 -0.27627,-0.005 -0.25859,0.0936 0.0253,0.1414 0.22852,0.22421 0.22852,0.0931 0,-0.0545 0.0576,-0.0667 0.15537,-0.0327 0.0854,0.0296 0.2245,0.0516 0.30899,0.0488 0.0845,-0.003 0.17674,0.0256 0.205,0.0631 0.0677,0.0898 0.12968,0.0867 0.12968,-0.006 z m -11.94355,-0.24367 c 0.0601,0.0189 0.16958,-0.041 0.24335,-0.13309 0.19456,-0.24294 0.8737,-0.7863 0.98277,-0.7863 0.0512,0 0.0655,-0.0226 0.0317,-0.0503 -0.0338,-0.0277 0.0633,-0.085 0.21577,-0.1274 0.15244,-0.0424 0.2633,-0.10429 0.24635,-0.13757 -0.0169,-0.0333 0.0691,-0.10583 0.19115,-0.16123 0.12208,-0.0554 0.17821,-0.10189 0.12474,-0.10331 -0.35695,-0.01 -2.0654,1.22065 -1.93521,1.3934 0.0248,0.0329 -0.0427,0.0517 -0.14999,0.0418 -0.1104,-0.0102 -0.21384,0.0293 -0.23822,0.0911 -0.0334,0.0847 -0.0182,0.09 0.0676,0.0239 0.0609,-0.0469 0.15985,-0.0699 0.21992,-0.051 z m -5.78905,-0.23911 c -0.0601,-0.0199 -0.17996,-0.0212 -0.26634,-0.003 -0.0864,0.0185 -0.0372,0.0348 0.10929,0.0363 0.14649,0.001 0.21716,-0.0136 0.15705,-0.0336 z m 2.84926,-0.35266 c -0.0281,-0.0601 -0.0668,-0.10921 -0.086,-0.10921 -0.0192,0 -0.0349,0.0491 -0.0349,0.10921 0,0.0601 0.0387,0.1092 0.086,0.1092 0.0473,0 0.063,-0.0491 0.0349,-0.1092 z M 133.1911,95.1428 c -0.0289,-0.0618 -0.0716,-0.0967 -0.0949,-0.0777 -0.0233,0.0191 -0.016,0.0696 0.0162,0.11235 0.0875,0.11615 0.13871,0.0936 0.0787,-0.0347 z m 13.64185,0.0395 c 0,-0.04 -0.12984,-0.0723 -0.28854,-0.0717 -0.21896,8.5e-4 -0.25643,0.0181 -0.15537,0.0717 0.1745,0.0925 0.44391,0.0925 0.44391,0 z m 0.41987,-0.044 c -0.0295,-0.0242 -0.10608,-0.0268 -0.17017,-0.006 -0.0708,0.0232 -0.0498,0.0405 0.0536,0.044 0.0936,0.003 0.14603,-0.014 0.11653,-0.0382 z m -21.55873,-0.35139 c -0.0234,-0.0191 -0.0954,0.0374 -0.16,0.12567 -0.11231,0.15335 -0.11041,0.1549 0.0425,0.0348 0.088,-0.0691 0.1409,-0.14134 0.11754,-0.16049 z m 9.88633,-0.0301 c -0.0718,-0.0138 -0.17418,0.0108 -0.22758,0.0546 -0.0703,0.0576 -0.0554,0.0796 0.0538,0.0796 0.083,0 0.15374,0.041 0.15717,0.091 0.003,0.05 0.0379,0.0255 0.0767,-0.0546 0.0497,-0.10286 0.0321,-0.15295 -0.0601,-0.17063 z m 10.27593,0.13424 c 0.17843,-0.0469 0.18713,-0.0587 0.0444,-0.0604 -0.0977,-0.001 -0.25747,0.026 -0.35513,0.0604 -0.22624,0.0797 0.007,0.0797 0.31074,0 z m 1.06539,-0.0279 c 0,-0.0153 -0.08,-0.0451 -0.17769,-0.066 -0.0977,-0.021 -0.1553,-0.008 -0.12793,0.0279 0.0478,0.0634 0.30562,0.0956 0.30562,0.0381 z m -11.0858,-0.81294 c 0.26296,-0.0993 0.2695,-0.10785 0.0546,-0.0714 -0.20605,0.0349 -0.24415,0.0171 -0.24415,-0.11452 0,-0.13505 -0.0191,-0.14289 -0.14291,-0.0587 -0.0822,0.0559 -0.10318,0.10812 -0.0494,0.12283 0.0514,0.0141 0.0715,0.0726 0.0446,0.13007 -0.0615,0.13132 -0.0305,0.13056 0.33723,-0.008 z m 4.3821,-0.10477 c 0.0311,-0.0413 -0.005,-0.0535 -0.0836,-0.0286 -0.15381,0.0484 -0.18195,0.10058 -0.0542,0.10058 0.046,0 0.10795,-0.0324 0.13779,-0.072 z m -23.52735,-0.14561 c 0.0311,-0.0413 -0.005,-0.0535 -0.0835,-0.0286 -0.15381,0.0484 -0.18195,0.10059 -0.0542,0.10059 0.046,0 0.10795,-0.0324 0.13778,-0.072 z m 19.25649,-0.38305 c -0.0304,-0.21022 -0.0727,-0.40641 -0.0939,-0.43599 -0.0212,-0.0296 0.0152,-0.0369 0.0809,-0.0162 0.0862,0.0271 0.12225,-0.039 0.12942,-0.23744 0.01,-0.26574 0.008,-0.26766 -0.06,-0.0566 -0.0384,0.12012 -0.0746,0.16301 -0.0804,0.0953 -0.006,-0.0677 -0.0525,-0.14442 -0.10392,-0.17046 -0.0567,-0.0288 -0.0862,0.0196 -0.075,0.12311 0.0373,0.34512 -0.002,0.44299 -0.15957,0.39352 -0.13513,-0.0425 -0.13424,-0.0327 0.009,0.0968 0.0875,0.0793 0.13436,0.17697 0.10413,0.21707 -0.0302,0.0401 0.0158,0.1071 0.10229,0.14887 0.13694,0.0661 0.14005,0.0854 0.0241,0.14896 -0.11416,0.0626 -0.11092,0.0732 0.0227,0.0741 0.13598,9.8e-4 0.14882,-0.0477 0.10055,-0.3811 z m 0.45912,0.15544 c 0.0981,-0.15555 0.11429,-0.25032 0.0516,-0.30174 -0.0627,-0.0514 -0.10988,-0.0147 -0.1502,0.11707 -0.0323,0.10562 -0.0945,0.17395 -0.13809,0.15184 -0.0436,-0.0221 -0.0793,0.0273 -0.0793,0.10971 0,0.21985 0.15225,0.18281 0.31602,-0.0769 z m 0.17863,0.0822 c 0,-0.0855 -0.0326,-0.11783 -0.0798,-0.0791 -0.0439,0.036 -0.0529,0.10104 -0.0201,0.14457 0.0835,0.11076 0.0999,0.10001 0.0999,-0.0654 z m -0.46077,-0.47804 c 0.0303,-0.0648 0.0154,-0.094 -0.0349,-0.0685 -0.0483,0.0245 -0.0878,0.0753 -0.0878,0.11299 0,0.10472 0.0636,0.0817 0.12266,-0.0445 z m 0.76516,-0.0447 c 0,-0.0381 0.0398,-0.0492 0.0884,-0.0245 0.0486,0.0246 0.13805,-0.0471 0.19872,-0.15951 0.0607,-0.11238 0.16263,-0.24917 0.22656,-0.30399 0.16417,-0.14076 0.0865,-0.17212 -0.28497,-0.11498 -0.26132,0.0402 -0.30287,0.0686 -0.22016,0.15031 0.0794,0.0785 0.0714,0.10074 -0.0362,0.10074 -0.0989,0 -0.12673,0.0517 -0.0979,0.18201 0.0434,0.19638 -0.0415,0.23432 -0.21182,0.0946 -0.14149,-0.11602 -0.1378,-0.007 0.004,0.11772 0.11672,0.10246 0.3334,0.0749 0.3334,-0.0424 z m -3.75884,-0.44294 c -0.0246,-0.05 -0.0448,-0.009 -0.0448,0.091 0,0.10011 0.0202,0.14106 0.0448,0.091 0.0246,-0.05 0.0246,-0.13196 0,-0.18201 z m 2.50965,0.0728 c -0.006,-0.15204 -0.0111,-0.15358 -0.0742,-0.0214 -0.0674,0.1413 -0.0687,0.1413 -0.16863,0 -0.10928,-0.15449 -0.13878,-0.1149 -0.0522,0.0701 0.0821,0.17547 0.30215,0.13918 0.295,-0.0487 z m 0.68836,0.005 c -0.0283,-0.0581 -0.0494,-0.0408 -0.0536,0.044 -0.004,0.0768 0.0171,0.11975 0.0466,0.0956 0.0295,-0.0242 0.0326,-0.087 0.007,-0.13954 z m -2.84103,-0.43682 c -0.0283,-0.0581 -0.0494,-0.0408 -0.0536,0.044 -0.004,0.0768 0.0171,0.11975 0.0466,0.0956 0.0295,-0.0242 0.0327,-0.087 0.007,-0.13954 z m 2.30834,-0.0728 c -0.0283,-0.0581 -0.0494,-0.0408 -0.0536,0.044 -0.004,0.0768 0.0171,0.11975 0.0466,0.0956 0.0295,-0.0242 0.0327,-0.087 0.007,-0.13954 z m 1.58985,-0.004 c 0.33091,-0.22524 0.56906,-0.43056 0.56906,-0.49062 0,-0.036 0.11861,-0.12283 0.26357,-0.19305 0.24015,-0.11633 0.40807,-0.30051 0.33134,-0.36344 -0.0169,-0.0139 -0.12037,0.0433 -0.22991,0.12695 -0.10955,0.0837 -0.22211,0.13335 -0.25014,0.11036 -0.028,-0.023 -0.1301,0.0802 -0.22681,0.22929 -0.16602,0.25597 -0.34398,0.397 -0.47552,0.37684 -0.0646,-0.01 -0.20807,0.15395 -0.21021,0.24007 -0.002,0.0796 0.0766,0.067 0.22862,-0.0364 z m -0.91381,-0.61277 c -0.025,-0.0534 -0.0568,-0.0971 -0.0708,-0.0971 -0.014,0 -0.0458,0.0437 -0.0708,0.0971 -0.025,0.0534 0.007,0.0971 0.0708,0.0971 0.0639,0 0.0958,-0.0437 0.0708,-0.0971 z m 1.70621,-0.45925 c -0.0252,-0.0335 0.12392,-0.10968 0.33148,-0.16928 0.20757,-0.0596 0.4444,-0.1308 0.52629,-0.15822 0.11796,-0.0395 0.13886,-0.0184 0.10062,0.1015 -0.0276,0.0865 -0.006,0.15136 0.0509,0.15136 0.0545,0 0.0991,-0.0317 0.0991,-0.0705 0,-0.0388 0.0629,-0.0507 0.13983,-0.0265 0.0888,0.028 0.13357,0.007 0.12266,-0.0569 -0.0341,-0.20002 0.008,-0.26094 0.23729,-0.34674 0.12838,-0.048 0.21641,-0.10117 0.19561,-0.11822 -0.10334,-0.0847 -1.46094,0.36561 -1.95149,0.64736 -0.12821,0.0736 -0.14463,0.11104 -0.0597,0.13594 0.14722,0.0431 0.2681,-0.009 0.20737,-0.0898 z M 122.0354,90.39798 c -0.0225,-0.0708 -0.0424,-0.0305 -0.0442,0.0896 -0.002,0.12013 0.0166,0.17808 0.0409,0.12879 0.0243,-0.0493 0.0258,-0.14757 0.003,-0.21841 z m -0.0915,-0.47461 c -0.0246,-0.05 -0.0448,-0.009 -0.0448,0.091 0,0.10011 0.0202,0.14106 0.0448,0.091 0.0246,-0.05 0.0246,-0.13196 0,-0.18201 z m 10.45451,-0.10142 c 0.0846,-0.18076 -0.009,-0.20544 -0.12169,-0.0322 -0.0545,0.0836 -0.062,0.15184 -0.0167,0.15184 0.0453,0 0.10759,-0.0538 0.13838,-0.11963 z m 7.06561,-0.17159 0.22196,-0.0583 -0.22196,10e-4 c -0.12207,7.5e-4 -0.34181,0.0264 -0.4883,0.0569 l -0.26635,0.0556 0.26635,10e-4 c 0.14649,7.4e-4 0.36623,-0.0249 0.4883,-0.0569 z m -6.12598,-0.58243 c 0,-0.04 -0.0423,-0.0728 -0.094,-0.0728 -0.0517,0 -0.0693,0.0328 -0.0392,0.0728 0.0302,0.04 0.0725,0.0728 0.094,0.0728 0.0215,0 0.0392,-0.0328 0.0392,-0.0728 z m -6.24476,-0.52783 c -0.0246,-0.05 -0.0448,-0.009 -0.0448,0.091 0,0.10011 0.0202,0.14106 0.0448,0.091 0.0246,-0.05 0.0246,-0.13196 0,-0.18201 z m 6.73243,0.16464 c 0.0311,-0.0413 -0.005,-0.0535 -0.0835,-0.0286 -0.15381,0.0484 -0.18195,0.10058 -0.0542,0.10058 0.0459,0 0.10795,-0.0324 0.13778,-0.072 z m -8.23988,-0.74252 c -0.0283,-0.0581 -0.0494,-0.0408 -0.0536,0.044 -0.004,0.0768 0.0171,0.11975 0.0466,0.0956 0.0295,-0.0242 0.0327,-0.087 0.007,-0.13954 z m -14.62096,-2.64368 c 0.12207,-0.0572 0.29516,-0.10521 0.38464,-0.10663 0.0895,-0.001 0.42907,-0.0979 0.75465,-0.21451 0.35586,-0.12741 0.6982,-0.20151 0.85831,-0.1858 0.21106,0.0207 0.36699,-0.0425 0.7512,-0.30446 l 0.48486,-0.33059 -0.41457,0.051 c -0.34006,0.0418 -0.47004,0.0229 -0.72318,-0.10542 -0.16973,-0.086 -0.35984,-0.25133 -0.42246,-0.36734 -0.20324,-0.3765 -0.61589,-0.4405 -1.72342,-0.26729 -0.65754,0.10283 -1.40278,0.4071 -1.55014,0.6329 -0.17696,0.27115 -0.0977,0.52054 0.25224,0.79351 0.32495,0.25349 0.85016,0.51156 1.03713,0.50961 0.0488,-5e-4 0.18866,-0.0477 0.31074,-0.10496 z m 13.31736,-1.37549 c 0,-0.0157 -0.062,-0.0481 -0.13779,-0.072 -0.079,-0.0249 -0.11464,-0.0127 -0.0835,0.0286 0.0521,0.0692 0.22133,0.10233 0.22133,0.0434 z m 8.12359,-0.91783 c -0.0302,-0.04 -0.10245,-0.0723 -0.16061,-0.0717 -0.0635,6.7e-4 -0.0526,0.0293 0.0274,0.0717 0.17056,0.0904 0.20129,0.0904 0.13317,0 z m 2.47727,-0.37549 c -0.0435,-0.0577 -0.003,-0.0713 0.12793,-0.0432 0.31447,0.0674 0.21754,-0.0169 -0.18588,-0.1618 -0.20753,-0.0745 -0.57708,-0.15482 -0.82124,-0.17845 l -0.44391,-0.043 0.39952,0.10191 c 0.21974,0.056 0.50916,0.12239 0.64316,0.14742 0.13399,0.025 0.23913,0.0695 0.23363,0.0988 -0.0172,0.092 0.009,0.16253 0.0607,0.16253 0.0273,0 0.0211,-0.0379 -0.0139,-0.0843 z m 1.62892,-0.54834 c -0.0855,-0.0183 -0.22529,-0.0183 -0.31074,0 -0.0854,0.0183 -0.0155,0.0333 0.15537,0.0333 0.1709,0 0.24082,-0.015 0.15537,-0.0333 z m 0.5105,-0.53225 c -0.0884,-0.0801 -0.19888,-0.1456 -0.24555,-0.1456 -0.0467,0 0.009,0.0644 0.12473,0.14318 0.27131,0.18534 0.32385,0.1864 0.12082,0.002 z"
       id="path2565" />
    <circle
       style="fill:none;fill-rule:evenodd;stroke:#000000;stroke-width:0.265;stroke-miterlimit:4;stroke-dasharray:none;stroke-opacity:1"
       id="path956-8-7"
       cx="391.95059"
       cy="105.5849"
       r="10.3675" />
  </g>
</svg>
